<svg xmlns="http://www.w3.org/2000/svg" viewBox="0 0 37.16 36.159"><path class="a" d="M1.06,19.125v-1c-.276-.153-.847.291-1,0-.215-.4,0-.617,0-1v-1c0-.307-.138.261,0,0v-1c.061-.123.923.107,1,0,.092-.107.031.123,0,0v-1c-.092-.307-1-.693-1-1h0c0-.337.785-.755,1-1h0c.107-.153-.184.061,0,0a3.454,3.454,0,0,0,1-1h0c0-.414-.307-.724,0-1h0c.077-.077.939-.877,1-1,.077-.092.015.092,0,0-.031-.153-.077.015,0,0,.245.092-.107.123,0,0l1-1h0c.153-.153.092-.785,0-1h0c-.031-.092-.077.031,0,0,.2,0,.939-.123,1,0h0c.092.184-.153.077,0,0a2.733,2.733,0,0,1,1,0h0c.337,0,.939-.648,1-1,.061-.429.785-.77,1-1,.23-.261-.307.153,0,0,.4-.215.923-.6,1-1,.107-.49.648-.77,1-1l1-1h0a8.8,8.8,0,0,0,1-1h0c.153-.153.816.046,1,0,.153-.046-.184-.015,0,0h1a3.121,3.121,0,0,1,1,0h0c.153.061-.077.107,0,0h0l1-1c.153-.153-.2-.031,0,0s.816-.092,1,0c.276.153.739,0,1,0h0c.337,0,.663.923,1,1h0c.23.061.847-.816,1-1,.046-.077-.061-.061,0,0,.046.031-.015-.046,0,0,.031.307.755.923,1,1h0c.261.077-.153.785,0,1,.153.23.785-.153,1,0h0c.153.153.785,1.015,1,1h1c.368,0,.648-.153,1,0a1.26,1.26,0,0,0,1,0,2.2,2.2,0,0,1,1,0h0c.307.031.816-.23,1,0h0c.153.153.847.785,1,1,.092.2-.215,0,0,0h1c.23,0,.816-.107,1,0,.2.153-.153.847,0,1h1c.184.215.015.693,0,1,0,.245-.245,0,0,0h1c.215,0-.107.8,0,1h0l1,1c.061.153.015-.123,0,0,0,.153-.107.939,0,1h0c.2.153.031-.261,0,0v1h0c-.031.153-.138.893,0,1,.23.153.985-.23,1,0v1c0,.153-.877-.123-1,0a3.635,3.635,0,0,0,0,1h0c0,.245.847.847,1,1,.215.153-.031-.245,0,0a5.431,5.431,0,0,1,0,1v1c0,.123-.046-.123,0,0,.031.107-.092-.061,0,0l1,1c.307.2-.123-.352,0,0,.153.337,1,.648,1,1v1c0,.276-.908-.261-1,0a1.845,1.845,0,0,0,0,1c.123.215.969.739,1,1a2,2,0,0,1,0,1h0c-.077.184-.847-.138-1,0-.153.153.092.893,0,1-.092.092-.046-.138,0,0h0a2.2,2.2,0,0,1,0,1h0c-.061.23-.908.816-1,1-.107.2.2-.107,0,0h0c-.107.061,0,.862,0,1,0,.153-.908-.092-1,0v1c-.153.2.215-.092,0,0-.215.153-.862-.153-1,0-.153.184.061.785,0,1-.061.276-.77,0-1,0h-1c-.215,0,.092.816,0,1-.107.245.138-.153,0,0-.153.153-.939.785-1,1-.031.184.153.061,0,0-.2-.092-.908-.153-1,0-.184.307.2.8,0,1h0c-.2.153-.77,0-1,0-.276,0,.046.816,0,1-.046.153.015-.169,0,0-.031.184-.939.847-1,1h0c-.153.23.153.8,0,1h0c-.2.261-.693-.077-1,0a2.739,2.739,0,0,1-1,0h0c-.153,0-.893.847-1,1h0a2.841,2.841,0,0,1-1,1,3.642,3.642,0,0,1-1,0h0c-.215,0,.2.092,0,0-.153-.061-.908-.153-1,0-.153.215.2-.061,0,0h-1a2.2,2.2,0,0,1-1,0h0a4.362,4.362,0,0,1-1,0c-.153-.077.153-.015,0,0h0a3.126,3.126,0,0,1-1,0h-1c-.184-.061.107.169,0,0-.077-.153.215-.969,0-1h-1c-.307-.046-.816.23-1,0v-1h-1c-.23-.153-.709-.969-1-1h-1c-.092,0,.092.015,0,0h0c-.153-.031-.893.153-1,0-.092-.153.153-.061,0,0-.307.123-.755-.046-1,0h0c-.4.031-.632.169-1,0a3.454,3.454,0,0,1-1-1c-.184-.261-.663-.939-1-1h0c-.307-.061-.724.184-1,0a4.408,4.408,0,0,1-1-1c-.123-.23.015.276,0,0v-1c-.031-.307-.709.077-1,0-.352-.107.23-.8,0-1-.215-.2-1,.307-1,0v-1c0-.261.184-.831,0-1-.184-.184,0,.245,0,0v-1c-.031-.4-.908-.6-1-1-.092-.352.709-.831,1-1h0c.153-.107.092-.816,0-1h0c-.153-.153-.847.046-1,0-.123-.031,0,.077,0,0v-1c.092-.107.077.092,0,0-.123-.123.015.153,0,0v-1a5.449,5.449,0,0,1,0-1c.061-.184.184-.908,0-1Zm15-3c.107-.107.092.077,0,0-.153-.123.092.153,0,0v-1c-.107-.2-.847.153-1,0h0c-.153-.123.092-.816,0-1-.077-.153-.077.153,0,0h0a3.64,3.64,0,0,0,0-1h0c0-.153.092.153,0,0-.061-.123.031-.847,0-1h0c-.046-.184-.123.153,0,0,.123-.2-.046-.77,0-1h0c.061-.153.092.153,0,0a2.2,2.2,0,0,1,0-1h0c.092-.276.816-.785,1-1h0v-1c.092-.092.077.123,0,0-.077-.153-.031.153,0,0v-1c.046-.307-.2.245,0,0h1c.23-.307-.337-.893,0-1h1c.184-.061,0-.8,0-1,0-.245-.138.2,0,0h0c.153-.261.877-.724,1-1h0c.031-.046,0-.954,0-1,0-.261.245.015,0,0h-1c-.383-.031-.632,0-1,0h-2c-.2,0,.015-.215,0,0,0,.215.184.939,0,1h-1a2.333,2.333,0,0,0-1,1h0a3.116,3.116,0,0,1-1,1c-.307.2.031.632,0,1h0c-.031.307-.816.785-1,1h0c-.123.153-.077-.169,0,0a3.642,3.642,0,0,1,0,1v1c0,.215.153-.061,0,0a3.276,3.276,0,0,0-1,1h0c-.061.307.739.816,1,1,.245.184-.061.663,0,1h0c.046.307.724.847,1,1,.276.184-.123-.307,0,0v1c.123.337.693-.031,1,0h0c.276,0,.847.755,1,1s-.276-.046,0,0h1c.261.077.8.8,1,1h0c.153.123-.138.169,0,0Zm2-1c.153.092-.061.138,0,0h0a12.313,12.313,0,0,1,1-1h0c.046,0-.015.031,0,0l1-1c.153-.153-.215,0,0,0,.2,0,.908.2,1,0,.061-.215-.184-.831,0-1h0c.153-.153-.153.077,0,0,.2-.031.816,0,1,0h0c.184,0,.908-.847,1-1s-.153.077,0,0h0c.245-.107.724.031,1,0h1c.184,0-.184-.107,0,0a1.493,1.493,0,0,0,1,0h0c.23-.153-.276.031,0,0h1c.307-.061-.307-1.015,0-1h1c.307.046-.2.77,0,1h0c.153.153.785,0,1,0h0c.077,0-.046.077,0,0a7.255,7.255,0,0,1,1,0h0c.215,0-.2-.061,0,0h1c.245.077-.261-.031,0,0h1c.123,0,0,.107,0,0,0-.153.077.123,0,0h0c-.123-.2-.908-.8-1-1h0a2.2,2.2,0,0,1,0-1h0c.031-.123.123.046,0,0h0c-.245-.077-.847.2-1,0v-1c-.153-.153.061.23,0,0-.077-.2-.785-1-1-1h0c-.23-.031-.862.184-1,0h0c-.107-.153.061.184,0,0-.077-.153.153-1.046,0-1h-1c-.307.107-.693,1.031-1,1v-1c-.261,0-.8.153-1,0h0c-.123-.092.138.061,0,0-.153-.061.092-.107,0,0h-1c-.153.153.215-.031,0,0h-1c-.153,0,.107.893,0,1-.123.107-.847-.031-1,0h0c-.153,0,.153-.107,0,0h0c-.153.153-.8,0-1,0h0c-.184,0,.184-.046,0,0h-1c-.261.046.061.724,0,1h0c-.046.245.153.8,0,1-.153.184-.77,0-1,0h0c-.153.031-1.031.816-1,1,.031.261.046-.23,0,0v1c-.061.23.2-.077,0,0h0c-.092.061-.077-.107,0,0a3.127,3.127,0,0,1,0,1h0a4.362,4.362,0,0,1,0,1c-.092.153-.061-.153,0,0v1c.077.153.046-.184,0,0a5.449,5.449,0,0,0,0,1c0,.153-.123-.061,0,0Zm12,11a1.259,1.259,0,0,0,1,0h0c.153-.107-.061.2,0,0h0v-1h1c.061-.123-.153-.954,0-1h0c.123-.031,0,.123,0,0,0-.153-.077.107,0,0h1v-1h0c.092-.123-.031.153,0,0a3.642,3.642,0,0,0,0-1h0c-.061-.153.015.138,0,0v-1h0c0-.153-.092.153,0,0,.107-.123-.061-.847,0-1h0c.031-.153.138,0,0,0-.153-.077.046-.816,0-1h0c-.077-.276-1-.724-1-1h0c0-.261.245-1,0-1h0c-.307,0-.785.215-1,0h0v-1h-1c-.153-.215.2-.816,0-1-.153-.153-.77.031-1,0h0c-.153-.031-.831.107-1,0-.123-.092.123-.123,0,0h0c-.107.031-.954.123-1,0a2.2,2.2,0,0,1,0-1h0c0-.107.092-.031,0,0h0a2.741,2.741,0,0,1-1,0h0c-.153-.077.169,0,0,0a3.642,3.642,0,0,0-1,0h0c-.184.123-.785-.015-1,0h0c-.23,0-.847-.123-1,0-.2.123.23-.046,0,0l-1,1c-.184.046.169-.138,0,0-.153.153-.8-.061-1,0h0a3.875,3.875,0,0,0-1,1h0c-.107.153-.107-.153,0,0,.092.153.816.046,1,0h0c.123-.046-.107-.061,0,0,.092.077.862,1.015,1,1v-1c.215,0,.785.939,1,1,.23.077-.184-.153,0,0s.77-.031,1,0a7.258,7.258,0,0,1,1,0h0c.153.046-.092.847,0,1,.077.123,0-.153,0,0h0c0,.184.847,0,1,0h0c.245,0-.261-.077,0,0l1,1c.153.061-.107-.153,0,0,.123.153-.046-.153,0,0v1c.046.23,0-.245,0,0h0a3.65,3.65,0,0,0,1,1c.153.031-.169-.092,0,0h0c.2.123.847-.184,1,0h0c.2.23,0,.709,0,1h0a4.364,4.364,0,0,1,0,1c-.061.184-.2.939,0,1h0c.23.092.847-.2,1,0,.153.23,0,.724,0,1h0a7.25,7.25,0,0,1,0,1c-.077.107-.077-.107,0,0Zm-10-8h0c-.061,0-.015-.077,0,0v1c.061.245-.031.755,0,1s.816-.153,1,0h0c.23.184-.015.724,0,1v1c-.031.153-.092-.123,0,0h0c.153.184.985.785,1,1v1c0,.2-.816-.031-1,0h0c-.107,0,0-.107,0,0a7.258,7.258,0,0,0,0,1h0c.046.153.015-.153,0,0v1c-.061.307.153-.276,0,0v1c-.077.153-.877-.061-1,0-.153.061.046-.153,0,0v1c-.077.307.184.693,0,1h-1c-.184.245.276-.153,0,0h0l-1,1c-.153.061.031-.169,0,0v1c-.046.307-.785-.2-1,0v1h0c-.184.215-.693.046-1,0h-1c-.061.061-.046-.092,0,0,.107.184-.184,1,0,1h1c.153,0-.153-.077,0,0,.153.107.816-.046,1,0h0c.2.077-.2.015,0,0h0a2.739,2.739,0,0,1,1,0h0a3.127,3.127,0,0,0,1,0c.092-.092-.123.046,0,0h0a5.448,5.448,0,0,1,1,0h0c.184,0-.153-.092,0,0h0a2.441,2.441,0,0,0,1,0c.046-.107-.107.092,0,0v-1h1c.153-.107-.184,0,0,0h1c.215-.031-.061.215,0,0,.061-.23.847-.8,1-1s-.153-.847,0-1c.2-.153.785.015,1,0h0c.245-.046.015.245,0,0h0v-1c.031-.153-.092-.847,0-1h1v-1c.092-.077-.107.123,0,0h0a1.594,1.594,0,0,0,0-1c-.153-.153.031.215,0,0h0a3.127,3.127,0,0,1,0-1h0c.077-.2-.123-.816,0-1,.123-.153.153.123,0,0h0c-.215-.184.031-.724,0-1h0c0-.092-.969-.893-1-1h0c-.031-.261.215-.847,0-1h0c-.153-.092.123.184,0,0-.123-.153-.954-.785-1-1h0c0-.092.092.046,0,0h-1c-.153-.031.107.107,0,0h0c-.092-.123.092-1.092,0-1l-1,1c-.031.046.046.015,0,0-.092,0-.031.077,0,0,.031-.245.2-.847,0-1h0l-1-1c-.123-.046.061.847,0,1h0c0,.031.015-.015,0,0-.061,0,0,.077,0,0h0A8.8,8.8,0,0,0,20.06,18.125Zm-2,2h0c-.077-.061.077-.077,0,0-.107.184.046-.2,0,0h0c-.046.2-.816,1.031-1,1h0c-.215,0,0-.215,0,0,0,.276.169.785,0,1h0c-.153.2-.77-.077-1,0h0c-.153.046.031.816,0,1,0,.153-.877-.123-1,0h0c-.184.2-.724.969-1,1h0c-.245,0-.847-.23-1,0s-.77.969-1,1h0a3.642,3.642,0,0,1-1,0v-1h0a2.2,2.2,0,0,0-1,0v1c-.2.23-.724.031-1,0h-1c-.153,0,.138.077,0,0-.153-.092.107-.893,0-1h-1c-.046-.031.077-.015,0,0h-1c-.153.046.153.092,0,0-.153-.123-.816,0-1,0h0c-.184.046-.061-.184,0,0v1c.046.153.077-.153,0,0a1.847,1.847,0,0,0,0,1h0c.123.184-.153-.153,0,0a12.314,12.314,0,0,1,1,1h0c.123.215-.245,1,0,1,.23,0,.816-.153,1,0h0a1.71,1.71,0,0,0,1,0h0c.092,0,0-.092,0,0h0c0,.2.8.923,1,1h0c.245.077.77-.153,1,0h0c.123,0,.015.138,0,0h0c0-.153-.123-.939,0-1h1c.077.031.031-.061,0,0v1c0,.2-.138-.138,0,0,.153.153-.169.061,0,0a3.642,3.642,0,0,1,1,0h0a2.44,2.44,0,0,0,1,0c.276-.092.785.169,1,0h0l1-1c.153-.153-.184,0,0,0h1c.307-.031-.031-.693,0-1h0c0-.2.862.153,1,0,.153-.153-.153-.939,0-1h0c.261-.107.908.276,1,0v-1c.077-.307-.23-.8,0-1h0c.184-.153.123.215,0,0h0a1.845,1.845,0,0,1,0-1c.077-.215.877-.816,1-1h0c.061-.123.092.107,0,0a3.64,3.64,0,0,1,0-1h0a4.364,4.364,0,0,0,0-1Zm-2-1h0c0-.153.123-1,0-1h0a5.446,5.446,0,0,1-1,0h0a3.642,3.642,0,0,1-1,0h-2a2.254,2.254,0,0,1-1-1h0c-.107-.23.23-.046,0,0-.261,0-.755.123-1,0v-1c-.352-.153-1,.414-1,0v-1c-.046-.215.184.077,0,0-.215-.092-.8-.862-1-1h0c-.23-.184-.893.291-1,0v-1c-.077-.245-.061.261,0,0h0c.061-.2,1-.785,1-1,0-.184-.862.138-1,0v-1c-.245-.2.015-.678,0-1-.031-.337-.061.322,0,0v-1h0c0-.184-.847,0-1,0h0c-.2,0,.092-.184,0,0-.077.215.138.831,0,1h-1v1c-.153.153.031-.23,0,0a5.448,5.448,0,0,1,0,1h0c-.077.184-.847-.107-1,0-.153.123,0,.816,0,1v1c0,.307.107-.307,0,0v1c-.077.2-.184-.092,0,0h1c.046,0-.015-.046,0,0a3.635,3.635,0,0,1,0,1h-1c-.092.031.031-.107,0,0h0v1c-.031.123,0-.138,0,0,0,.123-.107.954,0,1h1c.153.092-.123-.107,0,0h0c.046.061-.061-.031,0,0h0a7.705,7.705,0,0,1,1,1h0c0,.184-.153.954,0,1h1c.245.077-.184-.184,0,0a10.264,10.264,0,0,1,1,1h0c.123.153-.184.046,0,0a7.257,7.257,0,0,1,1,0h0c.153,0,.831-.107,1,0,.153.092-.184.923,0,1h0a1.846,1.846,0,0,0,1,0c.153-.123-.2-1,0-1h1c.153,0,.923.123,1,0h0c.123-.153-.184.015,0,0h1c.184,0,.923-.847,1-1s-.184.031,0,0h0c.123,0,.954.138,1,0,.046-.153-.107-.908,0-1h0C16.213,18.972,16.03,19.309,16.06,19.125Z" transform="translate(0.035 -0.05)"/></svg>