<svg xmlns="http://www.w3.org/2000/svg" viewBox="0 0 38.025 38.273"><path class="a" d="M38,13.016h0c-.016-.038.019-.961,0-1s.008.025,0,0H37l-17-12a1.966,1.966,0,0,0-2,0l-17,12H0c-.031.027,0-.025,0,0H0c-.031.016.016.953,0,1H0c-.03.049,0-.047,0,0v12c0,.069-.011-.071,0,0H0c.008.047-.016-.041,0,0H0c.016.042-.017-.035,0,0H0c0,.016-.024-.031,0,0H0c.024.016-.024.969,0,1H0c.016.02-.031,0,0,0H1l17,11c.258.188.694,1,1,1s.717-.812,1-1l17-11h0v-1h1v-12c0-.079.025.071,0,0Zm-19,10-6-4,6-4,6,4Zm-2-11-7,5-5-4,12-8Zm-10,7-4,3v-6Zm3,2,7,5v7l-12-8,5-4Zm10,5,8-5,5,4-13,8Zm10-7,4-3v6Zm-2-2-8-5v-7l13,8-5,4Z" transform="translate(0.014 0.257)"/></svg>