<svg xmlns="http://www.w3.org/2000/svg" viewBox="0 0 37.002 36.12"><defs><style>.a{fill:#c4c4c4;}</style></defs><path class="a" d="M34,14.366c-1.6-2.773-3.227-5.4-6-7-2.792-1.636-6.764-2.025-10-2a16.817,16.817,0,0,0-9,2,20.033,20.033,0,0,0-7,7,16.817,16.817,0,0,0-2,9,18.962,18.962,0,0,0,4,11,18.569,18.569,0,0,0,9,7,1.148,1.148,0,0,0,1,0c.205-.184.008-.725,0-1,0-.048.008-.188,0-1s0-2.394,0-3l-1,1a3.987,3.987,0,0,1-1,0c-.557-.01-1.452-.9-2-1-.583-.107-.531.363-1,0a4.676,4.676,0,0,1-1-2H7c-.2-.435.3-.625,0-1a3.034,3.034,0,0,0-1-1l-1-1c-.115-.084.092.109,0,0s.054.122,0,0-.128.071,0,0c.22-.088.764-1.018,1-1v1c.427.116.646-.266,1,0,.473.323,1.711.505,2,1,.316.6.445,1.616,1,2,.459.323.439-.011,1,0a14.593,14.593,0,0,0,2,0c.372-.076.657.162,1,0a5.206,5.206,0,0,1,1-3c-.826-.082-1.2.207-2,0a16.505,16.505,0,0,1-3-1,8.232,8.232,0,0,1-2-2,4.909,4.909,0,0,1-1-2c-.344-1.163-.02-2.787,0-4a7.27,7.27,0,0,1,2-5,4.4,4.4,0,0,1,0-4,3.134,3.134,0,0,1,2,0,14.875,14.875,0,0,1,2,1c.423.255.747-.176,1,0a16.611,16.611,0,0,1,9,0h1a10.748,10.748,0,0,1,2-1,3.3,3.3,0,0,1,2,0,4.363,4.363,0,0,1,0,4,7.271,7.271,0,0,1,2,5c.019,1.216.343,2.833,0,4a12.207,12.207,0,0,1-2,3c-.539.648-1.26.6-2,1a8.286,8.286,0,0,1-2,1c-.8.207-1.174-.082-2,0,.9.89,1.11,2.741,1,4v5c-.009.273-.2.813,0,1a1.139,1.139,0,0,0,1,0,18.542,18.542,0,0,0,9-7,18.976,18.976,0,0,0,4-11C37.024,20.128,35.635,17.159,34,14.366Z" transform="translate(0.002 -5.364)"/></svg>