<svg xmlns="http://www.w3.org/2000/svg" viewBox="0 0 36.077 36.077"><g transform="translate(0.039 0.038)"><path class="a" d="M22.1,7.1c4.847,0,5.083-.086,7,0a14.309,14.309,0,0,1,4,1,4.585,4.585,0,0,1,2,1,4.519,4.519,0,0,1,1,2,14.583,14.583,0,0,1,1,4c.086,1.915,0,2.151,0,7s.086,5.083,0,7a14.309,14.309,0,0,1-1,4,4.585,4.585,0,0,1-1,2,4.514,4.514,0,0,1-2,1,14.583,14.583,0,0,1-4,1c-1.915.086-2.151,0-7,0s-5.083.086-7,0a14.309,14.309,0,0,1-4-1,4.585,4.585,0,0,1-2-1,4.514,4.514,0,0,1-1-2,14.583,14.583,0,0,1-1-4c-.086-1.915,0-2.151,0-7s-.086-5.083,0-7a14.309,14.309,0,0,1,1-4,4.58,4.58,0,0,1,1-2,4.514,4.514,0,0,1,2-1,14.583,14.583,0,0,1,4-1c1.915-.094,2.151,0,7,0m0-3c-4.926,0-5.063-.086-7,0a17.2,17.2,0,0,0-5,1,7.816,7.816,0,0,0-3,2,7.967,7.967,0,0,0-2,3,17.159,17.159,0,0,0-1,5c-.086,1.931,0,2.074,0,7s-.086,6.063,0,8a11.335,11.335,0,0,0,1,4,7.818,7.818,0,0,0,2,3,7.967,7.967,0,0,0,3,2,17.159,17.159,0,0,0,5,1c1.937.086,2.066,0,7,0s6.063.086,8,0a11.335,11.335,0,0,0,4-1,7.83,7.83,0,0,0,3-2,7.951,7.951,0,0,0,2-3,11.269,11.269,0,0,0,1-4c.086-1.937,0-3.066,0-8s.086-5.063,0-7a17.26,17.26,0,0,0-1-5,7.83,7.83,0,0,0-2-3,7.953,7.953,0,0,0-3-2,11.269,11.269,0,0,0-4-1C28.155,4.019,27.026,4.1,22.1,4.1Z" transform="translate(-4.1 -4.098)"/><path class="a" d="M135.777,126.774a9,9,0,1,0,9,9A8.783,8.783,0,0,0,135.777,126.774Zm0,15a6,6,0,1,1,6-6A5.964,5.964,0,0,1,135.777,141.774Z" transform="translate(-117.777 -117.774)"/><ellipse class="a" cx="2" cy="2.5" rx="2" ry="2.5" transform="translate(26 6)"/></g></svg>