<svg xmlns="http://www.w3.org/2000/svg" viewBox="0 0 1139.828 21.657"><defs><style>.a{fill:none;stroke:#000;stroke-width:4px;}</style></defs><g transform="translate(-6933.086 -2935.672)"><path class="a" d="M6904.5,2312.5l16-16,16,16,16-16,16,16,16-16,16,16,16-16,16,16,16-16,16,16,16-16,16,16" transform="translate(30 642)"/><path class="a" d="M6904.5,2312.5l16-16,16,16,16-16,16,16,16-16,16,16,16-16,16,16,16-16,16,16,16-16,16,16" transform="translate(219 642)"/><path class="a" d="M6904.5,2312.5l16-16,16,16,16-16,16,16,16-16,16,16,16-16,16,16,16-16,16,16,16-16,16,16" transform="translate(408 642)"/><path class="a" d="M6904.5,2312.5l16-16,16,16,16-16,16,16,16-16,16,16,16-16,16,16,16-16,16,16,16-16,16,16" transform="translate(597 642)"/><path class="a" d="M6904.5,2312.5l16-16,16,16,16-16,16,16,16-16,16,16,16-16,16,16,16-16,16,16,16-16,16,16" transform="translate(786 642)"/><path class="a" d="M6904.5,2312.5l16-16,16,16,16-16,16,16,16-16,16,16,16-16,16,16,16-16,16,16,16-16,16,16" transform="translate(975 642)"/></g></svg>
